<svg width="25" height="25" viewBox="0 0 25 25" fill="none" xmlns="http://www.w3.org/2000/svg">
<path d="M12.0707 0C5.40164 0 0 5.40164 0 12.0707C0 18.7398 5.40164 24.1414 12.0707 24.1414C18.7398 24.1414 24.1414 18.7398 24.1414 12.0707C24.1414 5.40164 18.7398 0 12.0707 0ZM12.0707 3.01768C13.0665 3.01768 14.002 3.28927 14.9073 3.59104C14.2736 4.19457 13.5494 4.73775 13.6701 5.28093C13.7908 5.82412 15.7523 5.67323 15.7523 6.78977C15.7523 7.60455 14.4849 7.84596 15.36 8.78144C16.4162 9.83763 13.4287 11.7388 13.3683 13.1269C13.2778 15.6316 15.9032 16.054 17.9854 16.054C19.2528 16.054 19.5847 16.6576 19.4942 17.3818C17.8646 19.7054 15.0884 21.1539 12.0405 21.1539C10.8938 21.1539 9.83763 20.8823 8.84179 20.49C9.50568 19.1622 7.99684 16.5369 6.57854 15.6919C5.88447 14.9979 4.40581 15.2694 3.56086 14.9375C3.28927 14.1227 3.01768 13.308 2.9875 12.4027C3.07803 12.2518 3.22891 12.1311 3.47033 12.1311C4.04369 12.1311 4.82828 13.2778 5.25076 13.1571C5.79394 13.0364 3.01768 9.20391 4.31528 8.4495C4.91881 8.08737 6.12588 9.62639 5.73359 7.96667C5.37147 6.42765 6.81995 7.12172 7.72525 6.72942C8.50985 6.39748 9.08321 5.49217 8.11755 4.94899C7.93649 4.85846 7.72525 4.64722 7.45366 4.37563C8.81162 3.56086 10.3808 3.04785 12.0707 3.04785V3.01768ZM19.0415 6.30694C19.5847 6.97083 20.0072 7.69508 20.3693 8.47967V8.5702C20.2486 8.78144 20.0374 8.90215 19.7054 9.23409C18.8605 10.079 18.7398 8.60038 18.3777 8.29861C17.9854 7.93649 16.567 8.35897 16.386 7.90631C16.1747 7.36313 17.8948 6.63889 19.0415 6.30694Z" fill="white"/>
</svg>
