<svg width="25" height="25" viewBox="0 0 25 25" fill="none" xmlns="http://www.w3.org/2000/svg">
<path d="M18.2242 24.1864C16.953 24.1864 15.6143 23.8827 14.2306 23.2977C12.8807 22.724 11.5195 21.9365 10.192 20.9803C8.87585 20.0129 7.60466 18.9329 6.40096 17.7517C5.20852 16.548 4.12857 15.2768 3.17236 13.9719C2.2049 12.6219 1.42869 11.272 0.877461 9.96705C0.292487 8.57211 0 7.22218 0 5.95098C0 5.07352 0.157493 4.24106 0.461229 3.46484C0.776215 2.66613 1.28244 1.92366 1.96866 1.28244C2.83487 0.427481 3.82483 0 4.88228 0C5.32101 0 5.77099 0.101245 6.15347 0.281237C6.5922 0.483728 6.96344 0.787465 7.23343 1.19245L9.84331 4.87103C10.0795 5.19727 10.2595 5.51225 10.3833 5.82724C10.5295 6.16472 10.6083 6.50221 10.6083 6.82844C10.6083 7.25592 10.4845 7.67216 10.2483 8.06589C10.0795 8.36962 9.82081 8.69586 9.49457 9.0221L8.72961 9.82081C8.74086 9.85456 8.75211 9.87706 8.76336 9.89956C8.89835 10.1358 9.16834 10.5408 9.68582 11.1482C10.237 11.7782 10.7545 12.3519 11.272 12.8807C11.9357 13.5331 12.4869 14.0506 13.0044 14.4781C13.6456 15.0181 14.0619 15.2881 14.3094 15.4118L14.2869 15.4681L15.1081 14.6581C15.4568 14.3094 15.7943 14.0506 16.1205 13.8819C16.7392 13.4994 17.5267 13.4319 18.3142 13.7581C18.6067 13.8819 18.9217 14.0506 19.2591 14.2869L22.994 16.9417C23.4102 17.223 23.7139 17.583 23.8939 18.0104C24.0627 18.4379 24.1414 18.8317 24.1414 19.2254C24.1414 19.7654 24.0177 20.3053 23.7814 20.8116C23.5452 21.3178 23.2527 21.7565 22.8815 22.1615C22.2403 22.8702 21.5428 23.3764 20.7328 23.7027C19.9566 24.0177 19.1129 24.1864 18.2242 24.1864ZM4.88228 1.68742C4.26356 1.68742 3.68983 1.95741 3.13861 2.49739C2.62113 2.98112 2.26115 3.50984 2.03616 4.08357C1.79992 4.66854 1.68742 5.28726 1.68742 5.95098C1.68742 6.99719 1.93491 8.13339 2.42989 9.30333C2.93612 10.4958 3.64484 11.7332 4.5448 12.9707C5.44476 14.2081 6.46846 15.4118 7.59341 16.548C8.71836 17.6617 9.9333 18.6967 11.182 19.6079C12.3969 20.4966 13.6456 21.2165 14.8831 21.734C16.8067 22.5552 18.6067 22.7465 20.0916 22.1278C20.6653 21.8915 21.1716 21.5315 21.6328 21.0141C21.8915 20.7328 22.094 20.4291 22.2628 20.0691C22.3977 19.7879 22.4652 19.4954 22.4652 19.2029C22.4652 19.0229 22.4315 18.8429 22.3415 18.6404C22.3078 18.5729 22.2403 18.4492 22.0265 18.3029L18.2917 15.648C18.0667 15.4906 17.8642 15.3781 17.673 15.2993C17.4255 15.1981 17.3242 15.0968 16.9417 15.3331C16.7168 15.4456 16.5143 15.6143 16.2893 15.8393L15.4343 16.683C14.9956 17.1105 14.3206 17.2117 13.8031 17.0205L13.4994 16.8855C13.0382 16.638 12.4982 16.2555 11.902 15.7493C11.362 15.2881 10.777 14.7481 10.0683 14.0506C9.51707 13.4881 8.96585 12.8919 8.39212 12.2282C7.8634 11.6095 7.48092 11.0808 7.24468 10.642L7.10968 10.3045C7.04219 10.0458 7.01969 9.89956 7.01969 9.74206C7.01969 9.33708 7.16593 8.9771 7.44717 8.69586L8.29088 7.8184C8.51587 7.59341 8.68461 7.37967 8.79711 7.18843C8.8871 7.04218 8.92085 6.91844 8.92085 6.80594C8.92085 6.71595 8.8871 6.58095 8.83085 6.44596C8.75211 6.26597 8.62836 6.06348 8.47087 5.84974L5.86099 2.1599C5.74849 2.00241 5.6135 1.88991 5.44476 1.81117C5.26476 1.73242 5.07352 1.68742 4.88228 1.68742ZM14.2869 15.4793L14.1069 16.2443L14.4106 15.4568C14.3544 15.4456 14.3094 15.4568 14.2869 15.4793Z" fill="white"/>
<path d="M4.88228 1.68742C4.26356 1.68742 3.68983 1.95741 3.13861 2.49739C2.62113 2.98112 2.26115 3.50984 2.03616 4.08357C1.79992 4.66854 1.68742 5.28726 1.68742 5.95098C1.68742 6.99719 1.93491 8.13339 2.42989 9.30333C2.93612 10.4958 3.64484 11.7332 4.5448 12.9707C5.44476 14.2081 6.46846 15.4118 7.59341 16.548C8.71836 17.6617 9.9333 18.6967 11.182 19.6079C12.3969 20.4966 13.6456 21.2165 14.8831 21.734C16.8067 22.5552 18.6067 22.7465 20.0916 22.1278C20.6653 21.8915 21.1716 21.5315 21.6328 21.0141C21.8915 20.7328 22.094 20.4291 22.2628 20.0691C22.3977 19.7879 22.4652 19.4954 22.4652 19.2029C22.4652 19.0229 22.4315 18.8429 22.3415 18.6404C22.3078 18.5729 22.2403 18.4492 22.0265 18.3029L18.2917 15.648C18.0667 15.4906 17.8642 15.3781 17.673 15.2993C17.4255 15.1981 17.3242 15.0968 16.9417 15.3331C16.7168 15.4456 16.5143 15.6143 16.2893 15.8393L15.4343 16.683C14.9956 17.1105 14.3206 17.2117 13.8031 17.0205L13.4994 16.8855C13.0382 16.638 12.4982 16.2555 11.902 15.7493C11.362 15.2881 10.777 14.7481 10.0683 14.0506C9.51707 13.4881 8.96585 12.8919 8.39212 12.2282C7.8634 11.6095 7.48092 11.0808 7.24468 10.642L7.10968 10.3045C7.04219 10.0458 7.01969 9.89956 7.01969 9.74206C7.01969 9.33708 7.16593 8.9771 7.44717 8.69586L8.29088 7.8184C8.51587 7.59341 8.68461 7.37967 8.79711 7.18843C8.8871 7.04218 8.92085 6.91844 8.92085 6.80594C8.92085 6.71595 8.8871 6.58095 8.83085 6.44596C8.75211 6.26597 8.62836 6.06348 8.47087 5.84974L5.86099 2.1599C5.74849 2.00241 5.6135 1.88991 5.44476 1.81117C5.26476 1.73242 5.07352 1.68742 4.88228 1.68742Z" fill="white"/>
</svg>
